<svg width="3031" height="1821" viewBox="0 0 3031 1821" fill="none" xmlns="http://www.w3.org/2000/svg">
<g clip-path="url(#clip0_2517_2)">
<path d="M2.5 1400.37V1495.63L85 1448L2.5 1400.37Z" fill="white" stroke="white" stroke-width="2"/>
<path d="M2.5 1304.37V1399.63L85 1352L2.5 1304.37Z" fill="white" stroke="white" stroke-width="2"/>
<path d="M2.5 1208.37V1303.63L85 1256L2.5 1208.37Z" fill="white" stroke="white" stroke-width="2"/>
<path d="M2.5 1112.37V1207.63L85 1160L2.5 1112.37Z" fill="white" stroke="white" stroke-width="2"/>
<path d="M2.5 1016.37V1111.63L85 1064L2.5 1016.37Z" fill="white" stroke="white" stroke-width="2"/>
<path d="M85.5 1064.37V1159.63L168 1112L85.5 1064.37Z" fill="white" stroke="white" stroke-width="2"/>
<path d="M85.5 968.369V1063.63L168 1016L85.5 968.369Z" stroke="white" stroke-width="2"/>
<path d="M85.5 1160.37V1255.63L168 1208L85.5 1160.37Z" fill="white" stroke="white" stroke-width="2"/>
<path d="M85.5 1256.37V1351.63L168 1304L85.5 1256.37Z" stroke="white" stroke-width="2"/>
<path d="M85.5 1448.37V1543.63L168 1496L85.5 1448.37Z" stroke="white" stroke-width="2"/>
<path d="M168.5 1400.37V1495.63L251 1448L168.5 1400.37Z" stroke="white" stroke-width="2"/>
<path d="M251.5 1352.37V1447.63L334 1400L251.5 1352.37Z" stroke="white" stroke-width="2"/>
<path d="M251.5 1448.37V1543.63L334 1496L251.5 1448.37Z" stroke="white" stroke-width="2"/>
<path d="M417.5 1352.37V1447.63L500 1400L417.5 1352.37Z" stroke="white" stroke-width="2"/>
<path d="M500.5 1304.37V1399.63L583 1352L500.5 1304.37Z" stroke="white" stroke-width="2"/>
<path d="M500.5 1400.37V1495.63L583 1448L500.5 1400.37Z" stroke="white" stroke-width="2"/>
<path d="M915.5 1256.37V1351.63L998 1304L915.5 1256.37Z" stroke="white" stroke-width="2"/>
<path d="M2946.5 221.369V316.631L3029 269L2946.5 221.369Z" fill="white" stroke="white" stroke-width="2"/>
<path d="M2946.5 316.369V411.631L3029 364L2946.5 316.369Z" fill="white" stroke="white" stroke-width="2"/>
<path d="M2946.5 411.369V506.631L3029 459L2946.5 411.369Z" fill="white" stroke="white" stroke-width="2"/>
<path d="M2946.5 506.369V601.631L3029 554L2946.5 506.369Z" fill="white" stroke="white" stroke-width="2"/>
<path d="M2946.5 601.369V696.631L3029 649L2946.5 601.369Z" stroke="white" stroke-width="2"/>
<path d="M2862.5 554.369V649.631L2945 602L2862.5 554.369Z" fill="white" stroke="white" stroke-width="2"/>
<path d="M2778.5 507.369V602.631L2861 555L2778.5 507.369Z" fill="white" stroke="white" stroke-width="2"/>
<path d="M2610.5 413.369V508.631L2693 461L2610.5 413.369Z" stroke="white" stroke-width="2"/>
<path d="M2442.5 319.369V414.631L2525 367L2442.5 319.369Z" stroke="white" stroke-width="2"/>
<path d="M2358.5 272.369V367.631L2441 320L2358.5 272.369Z" stroke="white" stroke-width="2"/>
<path d="M2862.5 268.369V363.631L2945 316L2862.5 268.369Z" fill="white" stroke="white" stroke-width="2"/>
<path d="M2862.5 460.369V555.631L2945 508L2862.5 460.369Z" fill="white" stroke="white" stroke-width="2"/>
<path d="M2778.5 411.369V506.631L2861 459L2778.5 411.369Z" stroke="white" stroke-width="2"/>
<path d="M2694.5 362.369V457.631L2777 410L2694.5 362.369Z" fill="white" stroke="white" stroke-width="2"/>
<path d="M2610.5 313.369V408.631L2693 361L2610.5 313.369Z" fill="white" stroke="white" stroke-width="2"/>
<path d="M2526.5 264.369V359.631L2609 312L2526.5 264.369Z" stroke="white" stroke-width="2"/>
<path d="M2694.5 268.369V363.631L2777 316L2694.5 268.369Z" fill="white" stroke="white" stroke-width="2"/>
<path d="M2694.5 554.369V649.631L2777 602L2694.5 554.369Z" stroke="white" stroke-width="2"/>
<path d="M2610.5 507.369V602.631L2693 555L2610.5 507.369Z" stroke="white" stroke-width="2"/>
<path d="M2526.5 460.369V555.631L2609 508L2526.5 460.369Z" stroke="white" stroke-width="2"/>
<path d="M2778.5 698.369V793.631L2861 746L2778.5 698.369Z" stroke="white" stroke-width="2"/>
<path d="M2778.5 316.369V411.631L2861 364L2778.5 316.369Z" fill="white" stroke="white" stroke-width="2"/>
<path d="M666.5 1488.37V1583.63L749 1536L666.5 1488.37Z" stroke="white" stroke-width="2"/>
<path d="M583.5 1256.37V1351.63L666 1304L583.5 1256.37Z" stroke="white" stroke-width="2"/>
<path d="M666.5 1304.37V1399.63L749 1352L666.5 1304.37Z" stroke="white" stroke-width="2"/>
<path d="M749.5 1352.37V1447.63L832 1400L749.5 1352.37Z" stroke="white" stroke-width="2"/>
<path d="M749.5 1256.37V1351.63L832 1304L749.5 1256.37Z" stroke="white" stroke-width="2"/>
<path d="M334.5 1304.37V1399.63L417 1352L334.5 1304.37Z" stroke="white" stroke-width="2"/>
<path d="M500.5 1208.37V1303.63L583 1256L500.5 1208.37Z" stroke="white" stroke-width="2"/>
<path d="M666.5 1112.37V1207.63L749 1160L666.5 1112.37Z" stroke="white" stroke-width="2"/>
<path d="M583.5 1064.37V1159.63L666 1112L583.5 1064.37Z" stroke="white" stroke-width="2"/>
<path d="M666.5 1016.37V1111.63L749 1064L666.5 1016.37Z" stroke="white" stroke-width="2"/>
<path d="M417.5 1064.37V1159.63L500 1112L417.5 1064.37Z" stroke="white" stroke-width="2"/>
<path d="M334.5 1112.37V1207.63L417 1160L334.5 1112.37Z" fill="white" stroke="white" stroke-width="2"/>
<path d="M251.5 1064.37V1159.63L334 1112L251.5 1064.37Z" stroke="white" stroke-width="2"/>
<path d="M168.5 1016.37V1111.63L251 1064L168.5 1016.37Z" stroke="white" stroke-width="2"/>
<path d="M251.5 968.369V1063.63L334 1016L251.5 968.369Z" stroke="white" stroke-width="2"/>
<path d="M417.5 968.369V1063.63L500 1016L417.5 968.369Z" stroke="white" stroke-width="2"/>
<path d="M251.5 1160.37V1255.63L334 1208L251.5 1160.37Z" fill="white" stroke="white" stroke-width="2"/>
<path d="M168.5 1208.37V1303.63L251 1256L168.5 1208.37Z" fill="white" stroke="white" stroke-width="2"/>
<path d="M168.5 1304.37V1399.63L251 1352L168.5 1304.37Z" fill="white" stroke="white" stroke-width="2"/>
<path d="M251.5 1256.37V1351.63L334 1304L251.5 1256.37Z" fill="white" stroke="white" stroke-width="2"/>
<path d="M334.5 1208.37V1303.63L417 1256L334.5 1208.37Z" stroke="white" stroke-width="2"/>
<path d="M417.5 1160.37V1255.63L500 1208L417.5 1160.37Z" stroke="white" stroke-width="2"/>
<path d="M500.5 1112.37V1207.63L583 1160L500.5 1112.37Z" stroke="white" stroke-width="2"/>
<path d="M2.5 824.369V919.631L85 872L2.5 824.369Z" stroke="white" stroke-width="2"/>
</g>
<defs>
<clipPath id="clip0_2517_2">
<rect width="3031" height="1821" fill="white"/>
</clipPath>
</defs>
</svg>
